<?xml version="1.0" encoding="UTF-8" standalone="no"?>
<!DOCTYPE svg PUBLIC "-//W3C//DTD SVG 1.1//EN" "http://www.w3.org/Graphics/SVG/1.1/DTD/svg11.dtd">
<!-- Generated by Microsoft Visio, SVG Export test.svg Page-1 -->
<svg xmlns="http://www.w3.org/2000/svg" xmlns:xlink="http://www.w3.org/1999/xlink" xmlns:ev="http://www.w3.org/2001/xml-events"
		xmlns:v="http://schemas.microsoft.com/visio/2003/SVGExtensions/" width="1.33715in" height="1.33669in"
		viewBox="0 0 96.2746 96.2418" xml:space="preserve" color-interpolation-filters="sRGB" class="st9">
	<v:documentProperties v:langID="2057" v:metric="true" v:viewMarkup="false"/>

	<style type="text/css">
	<![CDATA[
		.st1 {fill:#002060;stroke:#002060;stroke-linecap:round;stroke-linejoin:round;stroke-width:0.75}
		.st2 {fill:#ffffff;stroke:#ffffff;stroke-linecap:round;stroke-linejoin:round;stroke-width:0.75}
		.st3 {stroke:#002060;stroke-linecap:round;stroke-linejoin:round;stroke-width:1.5}
		.st4 {fill:#ffffff;stroke:#002060;stroke-linecap:round;stroke-linejoin:round;stroke-width:1.5}
		.st5 {fill:none;stroke:none;stroke-linecap:round;stroke-linejoin:round;stroke-width:0.75}
		.st6 {fill:#002060;font-family:Adobe Garamond Pro Bold;font-size:4.00001em}
		.st7 {fill:#002060;stroke:#ffffff;stroke-linecap:round;stroke-linejoin:round;stroke-width:0.5}
		.st8 {stroke:#ffffff;stroke-linecap:round;stroke-linejoin:round;stroke-width:0.5}
		.st9 {fill:none;fill-rule:evenodd;font-size:12px;overflow:visible;stroke-linecap:square;stroke-miterlimit:3}
	]]>
	</style>

	<g v:mID="0" v:index="1" v:groupContext="foregroundPage">
		<title>Page-1</title>
		<v:pageProperties v:drawingScale="0.0393701" v:pageScale="0.0393701" v:drawingUnits="24" v:shadowOffsetX="9"
				v:shadowOffsetY="-9"/>
		<g id="group105-1" transform="translate(0.375,-0.375)" v:mID="105" v:groupContext="group">
			<title>Sheet.105</title>
			<g id="shape2-2" v:mID="2" v:groupContext="shape" transform="translate(5.70862,-5.61409)">
				<title>Sheet.2</title>
				<rect x="0" y="12.0547" width="84.3436" height="84.1871" rx="5.66929" ry="5.66929" class="st1"/>
			</g>
			<g id="shape16-4" v:mID="16" v:groupContext="shape" transform="translate(10.3455,-10.8582)">
				<title>Sheet.16</title>
				<rect x="0" y="21.0549" width="75.0295" height="75.1868" rx="5.66929" ry="5.66929" class="st2"/>
			</g>
			<g id="shape7-6" v:mID="7" v:groupContext="shape" transform="translate(6.88371,-73.3749)">
				<title>Sheet.7</title>
				<path d="M0 91.39 L9.97 91.39 L14.56 96.24 L24.93 96.24" class="st3"/>
			</g>
			<g id="shape8-9" v:mID="8" v:groupContext="shape" transform="translate(30.1496,-70.7609)">
				<title>Sheet.8</title>
				<ellipse cx="2.28504" cy="93.8264" rx="2.28504" ry="2.41535" class="st4"/>
			</g>
			<g id="shape10-11" v:mID="10" v:groupContext="shape" transform="translate(-24.5758,86.1467) rotate(-90)">
				<title>Sheet.10</title>
				<path d="M0 91.39 L10.54 91.39 L15.39 96.24 L26.35 96.24" class="st3"/>
			</g>
			<g id="shape11-14" v:mID="11" v:groupContext="shape" transform="translate(-21.9618,61.5541) rotate(-90)">
				<title>Sheet.11</title>
				<ellipse cx="2.41535" cy="93.8264" rx="2.41535" ry="2.41535" class="st4"/>
			</g>
			<g id="shape12-16" v:mID="12" v:groupContext="shape" transform="translate(6.43064,-21.9626)">
				<title>Sheet.12</title>
				<path d="M0 91.39 L15.24 91.39 L22.25 96.24 L38.09 96.24" class="st3"/>
			</g>
			<g id="shape13-19" v:mID="13" v:groupContext="shape" transform="translate(44.637,-19.5681)">
				<title>Sheet.13</title>
				<ellipse cx="2.3072" cy="93.8264" rx="2.3072" ry="2.41535" class="st4"/>
			</g>
			<g id="shape14-21" v:mID="14" v:groupContext="shape" transform="translate(89.1598,114.727) rotate(180)">
				<title>Sheet.14</title>
				<path d="M0 91.39 L15.24 91.39 L22.25 96.24 L38.09 96.24" class="st3"/>
			</g>
			<g id="shape15-24" v:mID="15" v:groupContext="shape" transform="translate(46.6445,-75.3407)">
				<title>Sheet.15</title>
				<ellipse cx="2.41535" cy="93.8264" rx="2.41535" ry="2.41535" class="st4"/>
			</g>
			<g id="shape27-26" v:mID="27" v:groupContext="shape" transform="translate(19.4695,-89.4823)">
				<title>Sheet.27</title>
				<rect x="0" y="90.2323" width="1.41732" height="6.00945" rx="0.708661" ry="0.708661" class="st1"/>
			</g>
			<g id="shape28-28" v:mID="28" v:groupContext="shape" transform="translate(72.6191,-89.4823)">
				<title>Sheet.28</title>
				<rect x="0" y="90.2323" width="1.41732" height="6.00945" rx="0.708661" ry="0.708661" class="st1"/>
			</g>
			<g id="shape29-30" v:mID="29" v:groupContext="shape" transform="translate(54.9026,-89.4823)">
				<title>Sheet.29</title>
				<rect x="0" y="90.2323" width="1.41732" height="6.00945" rx="0.708661" ry="0.708661" class="st1"/>
			</g>
			<g id="shape30-32" v:mID="30" v:groupContext="shape" transform="translate(37.1861,-89.4823)">
				<title>Sheet.30</title>
				<rect x="0" y="90.2323" width="1.41732" height="6.00945" rx="0.708661" ry="0.708661" class="st1"/>
			</g>
			<g id="shape31-34" v:mID="31" v:groupContext="shape" transform="translate(185.757,23.73) rotate(90)">
				<title>Sheet.31</title>
				<rect x="0" y="90.2323" width="1.41732" height="6.00945" rx="0.708661" ry="0.708661" class="st1"/>
			</g>
			<g id="shape32-36" v:mID="32" v:groupContext="shape" transform="translate(185.757,76.8796) rotate(90)">
				<title>Sheet.32</title>
				<rect x="0" y="90.2323" width="1.41732" height="6.00945" rx="0.708661" ry="0.708661" class="st1"/>
			</g>
			<g id="shape33-38" v:mID="33" v:groupContext="shape" transform="translate(185.757,59.1631) rotate(90)">
				<title>Sheet.33</title>
				<rect x="0" y="90.2323" width="1.41732" height="6.00945" rx="0.708661" ry="0.708661" class="st1"/>
			</g>
			<g id="shape34-40" v:mID="34" v:groupContext="shape" transform="translate(185.757,41.4466) rotate(90)">
				<title>Sheet.34</title>
				<rect x="0" y="90.2323" width="1.41732" height="6.00945" rx="0.708661" ry="0.708661" class="st1"/>
			</g>
			<g id="shape35-42" v:mID="35" v:groupContext="shape" transform="translate(74.0365,186.474) rotate(180)">
				<title>Sheet.35</title>
				<rect x="0" y="90.2323" width="1.41732" height="6.00945" rx="0.708661" ry="0.708661" class="st1"/>
			</g>
			<g id="shape36-44" v:mID="36" v:groupContext="shape" transform="translate(20.8869,186.474) rotate(180)">
				<title>Sheet.36</title>
				<rect x="0" y="90.2323" width="1.41732" height="6.00945" rx="0.708661" ry="0.708661" class="st1"/>
			</g>
			<g id="shape37-46" v:mID="37" v:groupContext="shape" transform="translate(38.6034,186.474) rotate(180)">
				<title>Sheet.37</title>
				<rect x="0" y="90.2323" width="1.41732" height="6.00945" rx="0.708661" ry="0.708661" class="st1"/>
			</g>
			<g id="shape38-48" v:mID="38" v:groupContext="shape" transform="translate(56.3199,186.474) rotate(180)">
				<title>Sheet.38</title>
				<rect x="0" y="90.2323" width="1.41732" height="6.00945" rx="0.708661" ry="0.708661" class="st1"/>
			</g>
			<g id="shape39-50" v:mID="39" v:groupContext="shape" transform="translate(-90.2323,78.297) rotate(-90)">
				<title>Sheet.39</title>
				<rect x="0" y="90.2323" width="1.41732" height="6.00945" rx="0.708661" ry="0.708661" class="st1"/>
			</g>
			<g id="shape40-52" v:mID="40" v:groupContext="shape" transform="translate(-90.2323,25.1473) rotate(-90)">
				<title>Sheet.40</title>
				<rect x="0" y="90.2323" width="1.41732" height="6.00945" rx="0.708661" ry="0.708661" class="st1"/>
			</g>
			<g id="shape41-54" v:mID="41" v:groupContext="shape" transform="translate(-90.2323,42.8639) rotate(-90)">
				<title>Sheet.41</title>
				<rect x="0" y="90.2323" width="1.41732" height="6.00945" rx="0.708661" ry="0.708661" class="st1"/>
			</g>
			<g id="shape42-56" v:mID="42" v:groupContext="shape" transform="translate(-90.2323,60.5804) rotate(-90)">
				<title>Sheet.42</title>
				<rect x="0" y="90.2323" width="1.41732" height="6.00945" rx="0.708661" ry="0.708661" class="st1"/>
			</g>
			<g id="group104-58" transform="translate(11.1098,-29.0452)" v:mID="104" v:groupContext="group">
				<title>Sheet.104</title>
				<g id="shape89-59" v:mID="89" v:groupContext="shape">
					<title>Sheet.89</title>
					<desc>LP</desc>
					<v:textBlock v:margins="rect(4,4,4,4)" v:tabSpace="42.5197"/>
					<v:textRect cx="36.7505" cy="76.8353" width="73.51" height="38.8129"/>
					<rect x="0" y="57.4289" width="73.501" height="38.8129" class="st5"/>
					<text x="8.29" y="91.24" class="st6" v:langID="2057"><v:paragraph v:horizAlign="1"/><v:tabList/>LP</text>				</g>
				<g id="shape90-62" v:mID="90" v:groupContext="shape" transform="translate(45.5379,-15.4379)">
					<title>Sheet.90</title>
					<ellipse cx="0.850394" cy="95.3914" rx="0.850394" ry="0.850394" class="st7"/>
				</g>
				<g id="shape91-64" v:mID="91" v:groupContext="shape" transform="translate(142.547,81.3567) rotate(90.3304)">
					<title>Sheet.91</title>
					<path d="M0 96.24 L10.51 96.24" class="st8"/>
				</g>
				<g id="shape92-67" v:mID="92" v:groupContext="shape" transform="translate(42.9867,-11.4694)">
					<title>Sheet.92</title>
					<ellipse cx="0.850394" cy="95.3914" rx="0.850394" ry="0.850394" class="st7"/>
				</g>
				<g id="shape93-69" v:mID="93" v:groupContext="shape" transform="translate(140.066,84.9872) rotate(90)">
					<title>Sheet.93</title>
					<path d="M0 96.24 L6.32 96.24" class="st8"/>
				</g>
				<g id="shape94-72" v:mID="94" v:groupContext="shape" transform="translate(83.4021,140.488) rotate(135)">
					<title>Sheet.94</title>
					<path d="M0 96.24 L2.45 96.24" class="st8"/>
				</g>
				<g id="shape95-75" v:mID="95" v:groupContext="shape" transform="translate(111.591,66.323) rotate(90)">
					<title>Sheet.95</title>
					<path d="M0 96.24 L6.11 96.24" class="st8"/>
				</g>
				<g id="shape96-78" v:mID="96" v:groupContext="shape" transform="translate(14.4985,-30.0429)">
					<title>Sheet.96</title>
					<ellipse cx="0.850394" cy="95.3914" rx="0.850394" ry="0.850394" class="st7"/>
				</g>
				<g id="shape97-80" v:mID="97" v:groupContext="shape" transform="translate(86.0951,148.568) rotate(135)">
					<title>Sheet.97</title>
					<path d="M0 96.24 L6.33 96.24" class="st8"/>
				</g>
				<g id="shape98-83" v:mID="98" v:groupContext="shape" transform="translate(114.284,74.4023) rotate(90)">
					<title>Sheet.98</title>
					<path d="M0 96.24 L6.11 96.24" class="st8"/>
				</g>
				<g id="shape99-86" v:mID="99" v:groupContext="shape" transform="translate(17.1915,-21.9636)">
					<title>Sheet.99</title>
					<ellipse cx="0.850394" cy="95.3914" rx="0.850394" ry="0.850394" class="st7"/>
				</g>
				<g id="shape100-88" v:mID="100" v:groupContext="shape" transform="translate(45.0534,164.717) rotate(180)">
					<title>Sheet.100</title>
					<ellipse cx="0.850394" cy="95.3914" rx="0.850394" ry="0.850394" class="st7"/>
				</g>
				<g id="shape101-90" v:mID="101" v:groupContext="shape" transform="translate(-52.0822,68.5084) rotate(-90)">
					<title>Sheet.101</title>
					<path d="M0 96.24 L9.16 96.24" class="st8"/>
				</g>
				<g id="shape102-93" v:mID="102" v:groupContext="shape" transform="translate(47.48,160.78) rotate(180)">
					<title>Sheet.102</title>
					<ellipse cx="0.850394" cy="95.3914" rx="0.850394" ry="0.850394" class="st7"/>
				</g>
				<g id="shape103-95" v:mID="103" v:groupContext="shape" transform="translate(-49.5993,64.4605) rotate(-90)">
					<title>Sheet.103</title>
					<path d="M0 96.24 L5.24 96.24" class="st8"/>
				</g>
			</g>
		</g>
	</g>
</svg>
